<?xml version="1.0" encoding="iso-8859-1"?>
<!-- Generator: Adobe Illustrator 19.0.0, SVG Export Plug-In . SVG Version: 6.00 Build 0)  -->
<svg version="1.1" id="Layer_1" xmlns="http://www.w3.org/2000/svg" xmlns:xlink="http://www.w3.org/1999/xlink" x="0px" y="0px"
	 viewBox="0 0 512.001 512.001" style="enable-background:new 0 0 512.001 512.001;" xml:space="preserve">
<g>
	<g>
		<path d="M471.862,131.886h-9.703v-22.009c0-22.129-18.004-40.133-40.133-40.133H40.133C18.004,69.744,0,87.747,0,109.877v230.106
			c0,22.129,18.004,40.133,40.133,40.133h9.708v22.005c0,22.132,18.006,40.138,40.138,40.138h381.885
			c22.132,0,40.138-18.006,40.138-40.138V172.023C512,149.892,493.994,131.886,471.862,131.886z M49.841,172.023V357.46h-9.708
			c-9.637,0-17.478-7.841-17.478-17.478V109.877c0-9.637,7.841-17.478,17.478-17.478h381.893c9.637,0,17.478,7.841,17.478,17.478
			v22.009H89.978C67.847,131.886,49.841,149.892,49.841,172.023z M489.345,402.12c0,9.641-7.842,17.483-17.483,17.483H89.978
			c-9.64,0-17.483-7.842-17.483-17.483V256.488h416.85V402.12z M489.345,233.833H72.496v-36.248h416.85V233.833z M489.345,174.93
			H72.496v-2.907c0-9.64,7.842-17.483,17.483-17.483h381.885c9.64,0,17.482,7.842,17.482,17.483V174.93z"/>
	</g>
</g>
<g>
	<g>
		<path d="M410.085,283.673c-7.234,0-14.126,1.485-20.394,4.161c-6.415-2.727-13.353-4.161-20.385-4.161
			c-28.731,0-52.106,23.375-52.106,52.106s23.375,52.106,52.106,52.106c7.032,0,13.97-1.435,20.384-4.161
			c6.267,2.677,13.16,4.161,20.395,4.161c28.731,0,52.106-23.375,52.106-52.106S438.817,283.673,410.085,283.673z M367.064,365.137
			c-15.195-1.151-27.21-13.873-27.21-29.357s12.014-28.206,27.21-29.357c-5.727,8.366-9.086,18.476-9.086,29.357
			S361.337,356.771,367.064,365.137z M410.085,365.231c-16.239,0-29.451-13.212-29.451-29.451s13.212-29.451,29.451-29.451
			s29.451,13.212,29.451,29.451S426.325,365.231,410.085,365.231z"/>
	</g>
</g>
<g>
	<g>
		<path d="M228.814,308.594h-115.54c-6.256,0-11.327,5.071-11.327,11.327s5.071,11.327,11.327,11.327h115.54
			c6.256,0,11.327-5.071,11.327-11.327S235.07,308.594,228.814,308.594z"/>
	</g>
</g>
<g>
	<g>
		<path d="M283.186,351.638H113.274c-6.256,0-11.327,5.071-11.327,11.327c0,6.256,5.071,11.327,11.327,11.327h169.911
			c6.256,0,11.327-5.071,11.327-11.327C294.513,356.709,289.442,351.638,283.186,351.638z"/>
	</g>
</g>
<g>
</g>
<g>
</g>
<g>
</g>
<g>
</g>
<g>
</g>
<g>
</g>
<g>
</g>
<g>
</g>
<g>
</g>
<g>
</g>
<g>
</g>
<g>
</g>
<g>
</g>
<g>
</g>
<g>
</g>
</svg>
