<svg id="Layer_1" data-name="Layer 1" xmlns="http://www.w3.org/2000/svg" viewBox="0 0 209 210"><defs><style>.cls-1{fill:#00838e;}</style></defs><title>icon</title><path id="path3816" class="cls-1" d="M111.63,202.2c27.36,0,37.72-8.31,52.4-28.39,4.38-9.29,11.69-34.06,11.69-34.06l1.62-6.81,12.3-75.4-14.05-2.07c-1.32-.23-2.15-3.87-.16-5.62l27.39-26.12c2.27-1.66,3.59-3,5.28-2.47s3.51,3.86,4,3.93l18.47,34c1,2.73-.05,6.18-1.69,5.76L215.1,62.54l-15.29,88.65c-5.58,45.09-43.1,80-88.55,80-49.3,0-89.26-41-89.26-91.6s40.31-95.68,92.51-94.07c20.74.58,29.41,5.69,38.95,12.67a79.59,79.59,0,0,1,22.09,24.49l-3.78,19-3.42,17a62.51,62.51,0,0,0-22.46-31.93,31,31,0,0,0-10.41-6.21,59.39,59.39,0,0,0-25.2-5.59c-33.61,0-61.67,25.47-61.67,60,0,6.68,1.83,19.79,3.73,25.82,11.09,25.73,27,41.55,59.31,41.55Zm80.92-3c2.26-5.09,5.33-8.51,7.12-14.72s6.35-16.86,7.67-24.2L227.19,230l-25.77.21-8.86-31" transform="translate(-22 -21.13)"/></svg>